#!OML:ASF F:\VICON\USERDATA\Patient Classification 1\PLAYGROUND\JustinFriday\JustinFriday.ASF
:FULLY-SPECIFIED
:DEGREES
2473
root 12.7934 19.8665 34.6621 -209.751 -175.282 -186.521
lowerback 11.0458 2.98897 4.85313
upperback -0.818026 4.75264 1.66171
thorax -6.81324 2.18154 -1.75662
lowerneck -32.7078 -7.68269 -13.3786
upperneck 27.2494 -6.2138 5.71821
head 15.7087 -3.18474 3.22127
rclavicle 9.93923e-015 6.36111e-015
rhumerus 88.5137 -27.0052 -14.5523
rradius 17.3684
rwrist -14.455
rhand -6.99676 -20.9486
rfingers 7.12502
rthumb 18.8739 -50.0529
lclavicle 9.93923e-015 6.36111e-015
lhumerus 88.5106 -6.20716 72.7481
lradius 59.2826
lwrist -18.0263
lhand -42.9707 -6.31111
lfingers 7.12502
lthumb -15.8301 23.0617
rfemur -16.8861 2.38092 29.2044
rtibia 32.146
rfoot 6.18891 4.50878
rtoes 32.4547
lfemur -19.5905 -2.29487 -8.03661
ltibia 40.8432
lfoot 2.99416 -2.28826
ltoes 22.7534
2474
root 12.77 19.8717 34.6785 -209.878 -175.176 -186.627
lowerback 11.1778 2.9555 4.86865
upperback -0.824185 4.74332 1.99726
thorax -6.92414 2.17931 -1.42051
lowerneck -32.5428 -7.37947 -13.1248
upperneck 27.6165 -5.69837 5.04664
head 15.7498 -3.05984 3.01595
rclavicle -4.01545e-014 -7.95139e-015
rhumerus 88.8564 -26.6432 -14.936
rradius 18.1346
rwrist -13.3257
rhand -5.93373 -21.2654
rfingers 7.12502
rthumb 19.8961 -50.267
lclavicle -4.01545e-014 -7.95139e-015
lhumerus 90.7598 -4.9862 72.9512
lradius 55.519
lwrist -18.5784
lhand -42.3921 -7.18056
lfingers 7.12502
lthumb -15.2728 22.2356
rfemur -16.734 2.56868 29.337
rtibia 32.1113
rfoot 6.47486 4.54681
rtoes 32.5096
lfemur -19.3981 -2.2193 -7.83094
ltibia 40.9471
lfoot 2.92896 -2.32924
ltoes 20.2723
2475
root 12.7519 19.878 34.6887 -210.097 -174.944 -186.634
lowerback 11.6638 2.95926 5.018
upperback -1.02638 4.82963 2.21587
thorax -7.42125 2.20133 -1.32457
lowerneck -31.8599 -7.01087 -12.8189
upperneck 27.9213 -5.21647 4.43027
head 15.6678 -2.94019 2.82223
rclavicle 1.66979e-014 2.06736e-014
rhumerus 88.3576 -26.1996 -13.6515
rradius 18.7297
rwrist -14.2579
rhand -5.83551 -21.529
rfingers 7.12502
rthumb 19.9905 -50.5207
lclavicle 1.66979e-014 2.06736e-014
lhumerus 92.6114 -4.05552 73.1771
lradius 51.7882
lwrist -18.9767
lhand -41.316 -8.34946
lfingers 7.12502
lthumb -14.2361 21.1426
rfemur -16.5279 2.41256 29.4248
rtibia 32.1426
rfoot 6.94667 5.2189
rtoes 32.7082
lfemur -19.1075 -2.03217 -7.69209
ltibia 40.9826
lfoot 2.62047 -2.22785
ltoes 18.2735
2476
root 12.729 19.8945 34.6935 -210.068 -174.876 -186.303
lowerback 11.9712 3.02406 4.79793
upperback -1.29993 4.92299 2.24312
thorax -7.90731 2.23765 -1.21823
lowerneck -31.2924 -6.65827 -12.3889
upperneck 28.2454 -4.80498 3.83742
head 15.626 -2.82952 2.60117
rclavicle 9.10434e-014 4.29375e-014
rhumerus 87.5395 -25.9054 -11.5482
rradius 19.1477
rwrist -16.8361
rhand -7.12553 -22.238
rfingers 7.12502
rthumb 18.7501 -51.3543
lclavicle 9.10434e-014 4.29375e-014
lhumerus 94.4958 -3.26794 73.2415
lradius 47.8372
lwrist -19.6096
lhand -40.4277 -9.42656
lfingers 7.12502
lthumb -13.3801 20.1238
rfemur -16.6288 2.05843 29.0828
rtibia 32.2166
rfoot 8.02401 6.21411
rtoes 32.905
lfemur -19.1254 -1.96811 -7.98056
ltibia 40.9641
lfoot 2.59918 -1.80432
ltoes 16.8323
2477
root 12.6984 19.9238 34.6935 -209.614 -175.192 -185.676
lowerback 11.7352 3.14108 4.25641
upperback -1.65192 4.9823 1.99452
thorax -8.17065 2.27336 -1.18784
lowerneck -30.5992 -6.39962 -11.9877
upperneck 28.4575 -4.58566 3.40373
head 15.5342 -2.77386 2.40957
rclavicle -4.41302e-014 -3.57812e-014
rhumerus 86.4421 -25.768 -9.19163
rradius 19.409
rwrist -19.6669
rhand -8.5629 -23.0932
rfingers 7.12502
rthumb 17.3671 -52.3373
lclavicle -4.41302e-014 -3.57812e-014
lhumerus 96.3513 -2.81802 73.2786
lradius 43.8665
lwrist -20.6727
lhand -39.4452 -10.5266
lfingers 7.12502
lthumb -12.4329 19.0836
rfemur -17.2132 1.91238 28.2492
rtibia 32.3037
rfoot 9.75523 6.69271
rtoes 32.5708
lfemur -19.6001 -2.10126 -8.75982
ltibia 40.8907
lfoot 2.91796 -1.19934
ltoes 13.9051
2478
root 12.6712 19.9401 34.6947 -209.649 -175.184 -185.337
lowerback 12.1257 3.15069 3.77638
upperback -1.92249 4.97686 2.18553
thorax -8.74764 2.28003 -0.752639
lowerneck -29.8417 -5.99954 -11.7689
upperneck 28.6804 -4.01072 2.81162
head 15.4071 -2.61447 2.25962
rclavicle -3.73715e-014 7.95139e-016
rhumerus 85.4031 -25.5077 -5.2044
rradius 19.2885
rwrist -23.6226
rhand -9.61521 -23.4498
rfingers 7.12502
rthumb 16.3542 -52.7803
lclavicle -3.73715e-014 7.95139e-016
lhumerus 97.7446 -2.01814 73.5964
lradius 40.2069
lwrist -20.6589
lhand -37.549 -11.517
lfingers 7.12502
lthumb -10.6042 18.1954
rfemur -17.254 2.30644 27.8939
rtibia 32.4414
rfoot 9.40926 6.79274
rtoes 33.5117
lfemur -19.5002 -2.07637 -9.07851
ltibia 40.7808
lfoot 3.32878 -0.737687
ltoes 9.99252
